<svg xmlns="http://www.w3.org/2000/svg" viewBox="0 0 755 275"><defs><style>.cls-1{fill:#fcbd14;}.cls-2,.cls-4,.cls-5{fill:#078249;}.cls-3{fill:#fff;}.cls-4{font-size:147.68px;}.cls-4,.cls-5{font-family:DellaRobbiaBT-Bold, DellaRobbia BT;font-weight:700;}.cls-5{font-size:76.42px;letter-spacing:0.09em;}.cls-6{letter-spacing:0.08em;}</style></defs><g id="Layer_2" data-name="Layer 2"><g id="Layer_1-2" data-name="Layer 1"><rect class="cls-1" width="755" height="275" rx="73.99"/><rect class="cls-2" x="21.06" y="18.78" width="236" height="236" rx="62.32"/><path class="cls-1" d="M247,79.38C246.5,51.9,224.25,31,196.77,30.71c-11.82-.13-23.65.08-35.48-.11a34,34,0,0,0-14.07,2.69Q94.93,55.55,42.62,77.8c-8,3.42-11.88,9.67-11.87,18.48.06,31.31-.05,62.63,0,93.94.08,30.39,22.23,52.49,52.69,52.65,18.49.09,37,0,55.47,0v0h29c9.83,0,19.66.18,29.48-.09,26.92-.74,49-21.84,49.47-48.5Q247.8,136.86,247,79.38ZM208,199.6a18.77,18.77,0,0,0,2.48.16c2.93-.17,5.11.9,5.12,4s-2.48,3.52-5,3.61a136.18,136.18,0,0,0-48,10.51,87.5,87.5,0,0,0-19.56,10.88c-3.14,2.4-5.9,2.37-9,.11C114.38,214.66,91.68,209.6,68,207.56c-2.88-.24-6.23-.22-6.07-4.18.16-3.65,3.26-3.59,6-3.47a18.78,18.78,0,0,0,2-.12q0-5-.1-10c-1.32-.12-2.65-.19-4-.39-2.25-.34-4.46-1-4.34-3.83s2.13-3.8,4.84-3.69a157.9,157.9,0,0,1,27.23,3.31c15.71,3.41,30,9.77,42,20.66,2.33,2.11,3.74,1.6,5.82-.15,19.6-16.53,42.83-22.83,67.9-23.79.83,0,1.67,0,2.5,0,2.28.1,3.84,1.12,4,3.53.22,2.58-1.47,3.51-3.66,3.84-1.47.21-3,.32-4.45.47C207.9,193,208,196.31,208,199.6ZM88.13,130.48c11.48,4.34,22.86,7.66,33.31,12.85,12.14,6,23.16,6,35.21-.07,9.28-4.7,19.44-7.66,29.15-11.57,2.76-1.11,4.13-1.56,3.93,2.38-.32,6.47-.26,13-.11,19.46.06,2.61-.69,3.34-3.35,3.36A84.4,84.4,0,0,0,140.92,170c-2,1.29-3.35,1.12-5.24-.11-13.32-8.68-28.1-12.55-43.89-13-1.74,0-3.74.56-3.69-2.48C88.21,146.69,88.13,138.9,88.13,130.48ZM213,112.35c-3.67,1-4.73,2.85-4.36,6.34.53,5-1.35,10.32,1.82,15,.09.14.19.38.13.47-3.51,5.63.7,10.64,1.35,15.92.25,2-.36,2.6-2.34,2.52-3.3-.14-6.6,0-10.26,0,.47-2.43.74-4.58,1.3-6.64,2.34-8.59,3-17.35,3.23-26.21.07-3-.83-4.28-3.8-5.08-19.88-5.4-39.71-11-59.55-16.58-2.47-.7-4.55-.45-5.07,2.27-.57,3,1.79,3.8,4.21,4.43q26.52,6.94,53,14c-.09,1.9-1.5,1.75-2.46,2.12C174,127,157.87,133.1,141.74,139.28a7.27,7.27,0,0,1-5.7.3c-27.4-10.68-54.83-21.31-82.59-31.06a14.47,14.47,0,0,1-2.14-1.17c.79-2.16,2.81-2.41,4.4-3.11Q95,87,134.25,69.79c2.27-1,4.37-1.89,7.07-.7,27.37,12.07,54.79,24,82.19,36,.75.33,1.42.83,3.37,2C221.56,109.13,217.4,111.17,213,112.35Z"/><path class="cls-2" d="M189.73,134.07c-.32,6.47-.26,13-.11,19.46.06,2.61-.69,3.34-3.35,3.36A84.4,84.4,0,0,0,140.92,170c-2,1.29-3.35,1.12-5.24-.11-13.32-8.68-28.1-12.55-43.89-13-1.74,0-3.74.56-3.69-2.48.11-7.78,0-15.57,0-24,11.48,4.34,22.86,7.66,33.31,12.85,12.14,6,23.16,6,35.21-.07,9.28-4.7,19.44-7.66,29.15-11.57C188.56,130.58,189.93,130.13,189.73,134.07Z"/><path class="cls-2" d="M208.64,118.69c.53,5-1.35,10.32,1.82,15,.09.14.19.38.13.47-3.51,5.63.7,10.64,1.35,15.92.25,2-.36,2.6-2.34,2.52-3.3-.14-6.6,0-10.26,0,.47-2.43.74-4.58,1.3-6.64,2.34-8.59,3-17.35,3.23-26.21.07-3-.83-4.28-3.8-5.08-19.88-5.4-39.71-11-59.55-16.58-2.47-.7-4.55-.45-5.07,2.27-.57,3,1.79,3.8,4.21,4.43q26.52,6.94,53,14c-.09,1.9-1.5,1.75-2.46,2.12C174,127,157.87,133.1,141.74,139.28a7.27,7.27,0,0,1-5.7.3c-27.4-10.68-54.83-21.31-82.59-31.06a14.47,14.47,0,0,1-2.14-1.17c.79-2.16,2.81-2.41,4.4-3.11Q95,87,134.25,69.79c2.27-1,4.37-1.89,7.07-.7,27.37,12.07,54.79,24,82.19,36,.75.33,1.42.83,3.37,2-5.32,2.08-9.48,4.12-13.88,5.3C209.33,113.33,208.27,115.2,208.64,118.69Z"/><path class="cls-3" d="M70,199.79q0-5-.1-10c3.7-.88,7.28.26,10.86.8,19,2.91,36.84,8.63,52.13,20.83,5.84,4.66,5.8,4.41,12-.33,18.57-14.2,39.73-20.9,63-21.34l.17,9.88c-.82.14-1.63.34-2.45.4-22.91,1.81-44.41,7.91-63.44,21.19-3.26,2.28-5.49,1-8-.73-12.1-8.23-25.44-13.41-39.61-16.91C86.39,201.54,78.06,201.58,70,199.79Z"/><text class="cls-4" transform="translate(339.1 148.8)">OFE</text><text class="cls-5" transform="translate(340.56 233.6)">A<tspan class="cls-6" x="59.2" y="0">ut</tspan><tspan x="132.9" y="0">o</tspan><tspan class="cls-6" x="180.02" y="0">-fill</tspan></text></g></g></svg>